<svg xmlns="http://www.w3.org/2000/svg" xmlns:xlink="http://www.w3.org/1999/xlink" width="2000" zoomAndPan="magnify" viewBox="0 0 1500 1499.999933" height="2000" preserveAspectRatio="xMidYMid meet" version="1.0"><defs><clipPath id="8a36aadfde"><path d="M 542.519531 542.777344 L 957.269531 542.777344 L 957.269531 957.527344 L 542.519531 957.527344 Z M 542.519531 542.777344 " clip-rule="nonzero"/></clipPath></defs><g clip-path="url(#8a36aadfde)"><path fill="#efb003" d="M 750.273438 749.996094 L 750.273438 892.429688 C 750.085938 892.429688 749.898438 892.4375 749.707031 892.4375 C 671.164062 892.4375 607.265625 828.539062 607.265625 749.996094 C 607.265625 671.453125 671.164062 607.554688 749.707031 607.554688 C 828.25 607.554688 892.148438 671.453125 892.148438 749.996094 C 892.148438 775.515625 885.394531 799.484375 873.589844 820.21875 L 920.574219 867.207031 C 928.441406 855.769531 935.140625 843.558594 940.597656 830.652344 C 951.414062 805.089844 956.894531 777.953125 956.894531 749.996094 C 956.894531 722.039062 951.414062 694.902344 940.597656 669.339844 C 930.164062 644.664062 915.230469 622.507812 896.210938 603.492188 C 877.195312 584.472656 855.039062 569.539062 830.363281 559.101562 C 804.800781 548.289062 777.664062 542.808594 749.707031 542.808594 C 721.75 542.808594 694.613281 548.289062 669.050781 559.101562 C 644.375 569.539062 622.21875 584.472656 603.203125 603.492188 C 584.1875 622.507812 569.25 644.664062 558.816406 669.339844 C 548.003906 694.902344 542.519531 722.039062 542.519531 749.996094 C 542.519531 777.953125 548.003906 805.089844 558.816406 830.652344 C 569.25 855.328125 584.1875 877.484375 603.203125 896.5 C 622.21875 915.519531 644.375 930.449219 669.050781 940.886719 C 694.613281 951.699219 721.75 957.183594 749.707031 957.183594 C 772.136719 957.183594 794.035156 953.644531 815.019531 946.667969 L 815.019531 906.308594 L 865.898438 957.183594 L 957.460938 957.183594 L 750.273438 749.996094 " fill-opacity="1" fill-rule="nonzero"/></g></svg>